<?xml version="1.0" standalone="no"?><!DOCTYPE svg PUBLIC "-//W3C//DTD SVG 1.1//EN" "http://www.w3.org/Graphics/SVG/1.1/DTD/svg11.dtd"><svg t="1498148324009" class="icon" style="" viewBox="0 0 1038 1024" version="1.1" xmlns="http://www.w3.org/2000/svg" p-id="7587" xmlns:xlink="http://www.w3.org/1999/xlink" width="129.75" height="128"><defs><style type="text/css"></style></defs><path d="M971.172807 331.503669c34.709814 586.419956-371.606299 636.62524-455.83842 692.496331-84.26712-55.87109-490.583232-106.076374-455.907417-692.496331C66.662723 209.830828 0.007001 180.751822 0.007001 180.751822L39.631647 57.884022C158.540582 136.076349 386.459792 133.038453 515.334387 0c128.805597 133.038453 356.724807 136.075349 475.667742 57.884022l39.658645 122.8678s-66.654722 29.079006-59.487967 150.751847z m-320.514045-33.34486L531.64783 632.051397a304.540591 304.540591 0 0 0-14.709497 65.187772H514.822405c-1.672943-17.952386-7.133756-40.238625-16.38244-66.859715L384.889846 298.158809h-90.000924l174.95002 465.088103h83.243155l184.198704-465.088103H650.657762z" fill="#b886ed" p-id="7588" class=""></path></svg>